<svg id="Layer_1" data-name="Layer 1" xmlns="http://www.w3.org/2000/svg" viewBox="0 0 979.03 573.94"><defs><style>.cls-1{fill:#24ab6b;}</style></defs><title>capital-vine-logo-new-1</title><path class="cls-1" d="M94.73,376.8a82.05,82.05,0,0,1-18.25-11.43,64.79,64.79,0,0,1-14.81-17.18,48.16,48.16,0,0,1-4.88-11.26,42.83,42.83,0,0,1-1.63-13.09,38.13,38.13,0,0,1,3-13.6,46.12,46.12,0,0,1,3.15-6.19,53.61,53.61,0,0,1,3.94-5.5,70.38,70.38,0,0,1,19.48-15.9,106,106,0,0,1,21.89-9.3,98.59,98.59,0,0,1,11.74-2.81A89.34,89.34,0,0,1,131,269.3l3.25,0,3.27.14c2.18.05,4.35.38,6.54.6a83,83,0,0,1,12.71,2.8,128.63,128.63,0,0,1,22.33,9.31c6.74,3.5,12.85,7.17,18.76,10.63s11.6,6.79,17.23,10,11.24,6.14,16.88,8.93a292.51,292.51,0,0,0,34.57,14.45c2.93,1,5.92,2,8.9,2.95l2.32.74,2.41.75,4.76,1.47c6.28,1.94,12.38,3.74,18.27,5.22A139.14,139.14,0,0,0,320,340.61a51.53,51.53,0,0,0,13.11.38,16.83,16.83,0,0,0,3.5-.84,3.13,3.13,0,0,0,1.1-.62s0-.1.1-.1.06-.18.13-.23.28-.45.53-.64.2-.41.33-.59a2.79,2.79,0,0,0,.37-.65,12.21,12.21,0,0,0,.72-1.72c.1-.33.26-.61.36-1s.17-.73.27-1.09l.17-.54.1-.59c.07-.39.15-.78.25-1.17s.08-.81.14-1.22a10.13,10.13,0,0,0,.14-1.22,22.52,22.52,0,0,0,0-2.46c0-.4,0-.8,0-1.21l-.14-1.14a19.15,19.15,0,0,0-.31-2.15,5.34,5.34,0,0,0-.24-.92c-.09-.28-.12-.64-.22-.88a12.82,12.82,0,0,0-.52-1.28c-.09-.15-.13-.38-.2-.51a.51.51,0,0,1-.17-.28c0-.05,0-.16-.05-.16a.1.1,0,0,1-.05-.06s0-.14-.09-.18c-.08-.29-.65-.7-1.56-1.26a18,18,0,0,0-4-1.69l-1.35-.38c-.46-.14-1-.21-1.49-.33-1-.25-2.13-.37-3.23-.56a79.76,79.76,0,0,0-15.38-.48A142.36,142.36,0,0,0,295.12,315a198.09,198.09,0,0,0-34.93,9.78c-5.68,2.17-11.24,4.58-16.53,7.21a168.78,168.78,0,0,0-15.51,8.94,186.72,186.72,0,0,0-28.42,23,203,203,0,0,0-42.38,60.19,174.39,174.39,0,0,0-16.19,71.32,168.09,168.09,0,0,0,3.57,36.77,163.75,163.75,0,0,0,4.79,18,174.34,174.34,0,0,0,6.7,17.46A187.48,187.48,0,0,0,200,628.73a177.09,177.09,0,0,0,65,38.93,188.34,188.34,0,0,0,18.6,5c6.32,1.37,12.75,2.35,19.21,3.13s13,1.2,19.52,1.41,13.08.13,19.61-.27a174.47,174.47,0,0,0,38.46-6.39,109.53,109.53,0,0,0,17.93-6.91A73.21,73.21,0,0,0,414,653.32c9.43-8,15.22-19.45,15.1-32.09a65.55,65.55,0,0,0-3-19,111.94,111.94,0,0,0-7.48-18.36v0a2.7,2.7,0,0,1,4.72-2.62A119.3,119.3,0,0,1,432.76,600c.62,1.65,1.19,3.34,1.75,5l.74,2.58.37,1.29.3,1.31.6,2.63.45,2.68c.17.89.27,1.79.36,2.7s.23,1.81.26,2.73a52.27,52.27,0,0,1-.38,11.09c-.11.93-.31,1.86-.47,2.78s-.41,1.84-.63,2.76A54,54,0,0,1,434.3,643l-.5,1.33-.61,1.27-1.25,2.55a25.57,25.57,0,0,1-1.41,2.45L429,653c-1.1,1.51-2.22,3-3.38,4.5s-2.44,2.83-3.76,4.13a83.85,83.85,0,0,1-17.48,13.27A123.07,123.07,0,0,1,384.88,684a189.67,189.67,0,0,1-41.36,9.77q-10.51,1.37-21.13,1.71c-7.06.24-14.15.21-21.23-.21a216,216,0,0,1-42.36-6.43c-28-7.36-54.17-21.29-76.56-39.74a216.69,216.69,0,0,1-54.51-67.76A205.86,205.86,0,0,1,111.88,540a204,204,0,0,1-6.63-44c-1.25-29.85,4.45-59.93,15.58-87.53,1.43-3.43,2.83-6.89,4.44-10.24.8-1.68,1.55-3.39,2.38-5.05l2.53-5c.83-1.66,1.72-3.29,2.64-4.91l2.71-4.87,2.88-4.77c1-1.59,1.92-3.18,3-4.72l3-4.66c1-1.54,2.13-3,3.19-4.57,2.1-3.06,4.39-6,6.63-9,4.61-5.83,9.37-11.55,14.49-17,2.5-2.77,5.17-5.38,7.8-8,1.31-1.33,2.7-2.58,4.05-3.87s2.72-2.58,4.14-3.8c5.55-5,11.43-9.74,17.49-14.29s12.46-8.72,19.09-12.65,13.38-7.33,20.22-10.48a253.31,253.31,0,0,1,42.62-15.25A190.65,190.65,0,0,1,307.26,261a133.18,133.18,0,0,1,25.36-.9c2.28.21,4.51.36,6.89.74,1.17.18,2.32.32,3.53.56l3.62.74a71.65,71.65,0,0,1,15.13,5.15A60,60,0,0,1,377,277.49a40.48,40.48,0,0,1,3.46,3.47l1.66,1.84c.56.62,1,1.26,1.48,1.89.95,1.27,1.88,2.56,2.77,3.87s1.56,2.61,2.31,3.94a65.62,65.62,0,0,1,3.73,8c.55,1.34.93,2.64,1.37,4s.9,2.67,1.17,4a74.57,74.57,0,0,1,1.58,7.87c.18,1.31.36,2.62.5,3.92l.24,3.88a78.41,78.41,0,0,1-4.6,30.82,68.1,68.1,0,0,1-3.28,7.66c-.56,1.26-1.36,2.54-2.08,3.8s-1.46,2.52-2.33,3.77a60.25,60.25,0,0,1-5.84,7.3c-1.12,1.17-2.2,2.34-3.42,3.44s-2.49,2.18-3.8,3.17a60.27,60.27,0,0,1-16.82,9,68.8,68.8,0,0,1-16.39,3.45,89.93,89.93,0,0,1-14.55.11,114.12,114.12,0,0,1-13-1.63,192.31,192.31,0,0,1-23-5.81c-7.18-2.29-14-4.78-20.57-7.28L262.8,380,257.92,378c-3.4-1.39-6.83-2.72-10.19-4.23a302.22,302.22,0,0,1-39.11-20.49,419.27,419.27,0,0,1-34.93-24.55c-5.39-4.11-10.58-8-15.53-11.47a91.18,91.18,0,0,0-14.28-8.55A59.18,59.18,0,0,0,137,306c-1.17-.28-2.33-.72-3.54-.91l-1.8-.39-1.86-.27A54,54,0,0,0,122,304a78.41,78.41,0,0,0-8.37.56A82.36,82.36,0,0,0,97,308.36a46.69,46.69,0,0,0-13.86,7.23,23.22,23.22,0,0,0-4.73,4.84,17.86,17.86,0,0,0-2.83,5.83,23.09,23.09,0,0,0-.77,7.2,34.13,34.13,0,0,0,1.46,8.08,55.3,55.3,0,0,0,8.27,16.23,88.46,88.46,0,0,0,13.14,14.49l0,0a2.73,2.73,0,0,1-3,4.52Z" transform="translate(-55.15 -245.17)"/><path class="cls-1" d="M465.79,376.43a87.71,87.71,0,0,1-19.73-10.6,68.68,68.68,0,0,1-16.3-16.33,49.26,49.26,0,0,1-8.95-22.65l-.18-1.59-.08-.8v-4.08a9.94,9.94,0,0,1,.12-1.63l.2-1.64a26.16,26.16,0,0,1,.52-3.27,43.08,43.08,0,0,1,4.73-12.18,53.37,53.37,0,0,1,7.58-10.21,62.38,62.38,0,0,1,9.4-8.2,71.55,71.55,0,0,1,22.4-10.77,61.38,61.38,0,0,1,12.79-2.15,46.77,46.77,0,0,1,6.79.1c1.14.11,2.29.18,3.43.34l3.4.64a27,27,0,0,1,3.33.84c1.1.33,2.23.6,3.29,1a58.49,58.49,0,0,1,6.22,2.67,68.53,68.53,0,0,1,11.14,6.95,105.52,105.52,0,0,1,17.34,17.38,190,190,0,0,1,13.33,19.07c8,13,14.61,26.32,20.88,39.65s11.91,26.77,17.45,40.15l8.2,20.06,4,10,4,10.16c5.33,13.61,10.35,27.33,15.18,41.09s9.3,27.62,13.67,41.47c8.77,27.67,16.66,55.59,24.85,82.59,2.06,6.73,4.16,13.38,6.34,19.84s4.45,12.73,6.87,18.41c1.21,2.82,2.47,5.48,3.69,7.77a32,32,0,0,0,3.23,5c.35.38.56.51.31.25a8.73,8.73,0,0,0-2.86-1.76c-.4-.13-.93-.37-1.42-.49a14.5,14.5,0,0,0-1.6-.35c-.56-.06-1.1-.16-1.65-.17-.28,0-.31,0-1.74.06a22.61,22.61,0,0,0-4.58.82,21.11,21.11,0,0,0-4.2,1.66,19.59,19.59,0,0,0-2.57,1.57,13,13,0,0,0-1.54,1.23,8.28,8.28,0,0,0-.81.74c-.29.31-.46.5-.53.56s-.21.23-.31.35a.57.57,0,0,1-.14.16.12.12,0,0,0-.06.06s0,0,0,0l.07-.15.08-.13.13-.26.29-.57.35-.73.37-.76.4-.89.4-.9.41-1c1.1-2.6,2.2-5.6,3.28-8.62,2.16-6.13,4.21-12.62,6.17-19.21,3.92-13.21,7.56-26.79,11-40.47s6.87-27.46,10.14-41.29,6.52-27.71,9.66-41.62c6.33-27.83,12.48-55.69,18.67-83.7q4.59-21,9.51-42.23c1.65-7.09,3.33-14.19,5.15-21.35s3.69-14.37,5.8-21.69,4.41-14.72,7.2-22.33a168.77,168.77,0,0,1,10.53-23.57c.53-1,1.16-2,1.77-3.06s1.21-2,1.88-3.06c1.4-2.06,2.71-4.1,4.33-6.15.81-1,1.52-2,2.41-3.05l2.62-3c.9-1,1.9-2,2.85-2.93.49-.48,1-1,1.47-1.44l1.56-1.38A76.51,76.51,0,0,1,791,251.53c2.55-1,5.13-2,7.67-2.7a94.2,94.2,0,0,1,29.66-3.62,124.66,124.66,0,0,1,27.06,4,135.22,135.22,0,0,1,24.95,9.25A128.79,128.79,0,0,1,892.13,265a113.35,113.35,0,0,1,11.41,8.23,90.73,90.73,0,0,1,10.85,10.61,67,67,0,0,1,9.53,14.6,45,45,0,0,1,1.9,4.55l.82,2.42c.14.41.27.81.39,1.23l.33,1.31q.32,1.32.6,2.64a26.62,26.62,0,0,1,.47,2.67c.11.89.24,1.8.31,2.68s.11,1.74.15,2.61a53.62,53.62,0,0,1-.57,9.8c-.2,1.57-.53,3-.83,4.52s-.7,2.9-1.14,4.26a69.39,69.39,0,0,1-6.67,15.13,74.34,74.34,0,0,1-9.45,12.78,70.11,70.11,0,0,1-12.44,10.76,58.59,58.59,0,0,1-16.52,7.81,50.49,50.49,0,0,1-10.09,1.81c-.87.08-1.77.11-2.67.12s-1.8,0-2.7,0a51.25,51.25,0,0,1-5.32-.52,52.82,52.82,0,0,1-18.32-6.5,65.39,65.39,0,0,1-13.4-10.4,73.17,73.17,0,0,1-9.86-12.43A71.1,71.1,0,0,1,812,341.36a59.73,59.73,0,0,1-3.42-17.08,48.7,48.7,0,0,1,.49-9.9,47.8,47.8,0,0,1,1.1-5.23c.52-1.71,1.08-3.42,1.71-5.07a53.32,53.32,0,0,1,9.89-15.59,77.19,77.19,0,0,1,11.44-10.32,105.47,105.47,0,0,1,11.76-7.4,131.4,131.4,0,0,1,24-9.84,144.2,144.2,0,0,1,24.79-5.24,127.69,127.69,0,0,1,26-.55,103.23,103.23,0,0,1,13.6,2.12c1.13.21,2.31.58,3.46.88s2.31.61,3.48,1l3.49,1.18,3.44,1.42A87.6,87.6,0,0,1,970.88,277a123.89,123.89,0,0,1,17.45,19.17,169,169,0,0,1,13.07,20.76,244.19,244.19,0,0,1,17.81,43.51q3.36,11.07,5.92,22.24t4.32,22.43a404.27,404.27,0,0,1-2,135.09c-1.33,7.42-3,14.78-4.74,22.11-1,3.65-1.82,7.31-2.88,10.94l-1.54,5.44-1.66,5.42a331.62,331.62,0,0,1-38.32,82.16,299.46,299.46,0,0,1-27.83,36.17,295.31,295.31,0,0,1-33.26,31.2l-4.49,3.52c-1.49,1.16-3,2.36-4.53,3.43l-9.26,6.59-9.51,6.18c-1.57,1.06-3.22,2-4.84,2.94l-4.87,2.88A350.44,350.44,0,0,1,839.32,779a392.5,392.5,0,0,1-42.15,14.69c-14.23,4.12-28.61,7.54-43,10.39-28.88,5.69-58,9-87,11.13s-57.9,3-86.65,3.67A859.47,859.47,0,0,1,407.07,805.4l-5.35-.94-5.34-1.06-10.66-2.11c-3.56-.68-7.08-1.52-10.63-2.28s-7.08-1.53-10.6-2.35c-14.1-3.35-28.15-6.84-42.06-10.84s-27.74-8.25-41.48-12.74l-10.26-3.52-5.12-1.77-5.1-1.84-10.18-3.71-10.13-3.86c-13.46-5.23-26.83-10.7-40-16.55s-26.3-11.88-39.22-18.29-25.73-13-38.37-20-25.09-14.17-37.4-21.63a2.7,2.7,0,0,1,2.72-4.67,990.22,990.22,0,0,0,156.25,70.37l10.12,3.49,10.17,3.33,5.08,1.66,5.12,1.58,10.22,3.15c13.69,4,27.4,7.89,41.25,11.26s27.74,6.49,41.69,9.34c3.49.69,7,1.32,10.49,2s7,1.35,10.5,1.91l10.52,1.74,5.27.87,5.28.75a853.4,853.4,0,0,0,169.86,8.15c28.64-1.51,57.15-3.18,85.37-6.07s56.2-6.92,83.52-13.13c13.67-3.09,27.16-6.69,40.4-10.91a360.91,360.91,0,0,0,38.8-14.69A319,319,0,0,0,864.15,733l4.33-2.71c1.44-.92,2.91-1.77,4.29-2.77l8.4-5.77,8.13-6.13c1.37-1,2.66-2.1,4-3.18l3.91-3.23A267.46,267.46,0,0,0,926,680.76a264.25,264.25,0,0,0,23.84-32.64,296.58,296.58,0,0,0,32.42-74.36l1.4-4.91,1.27-5c.89-3.28,1.59-6.62,2.39-9.94,1.43-6.66,2.79-13.35,3.84-20.1a367.13,367.13,0,0,0-.84-122.14q-1.83-10-4.23-19.78t-5.54-19.26a204.1,204.1,0,0,0-15.46-35.82c-6.18-11-13.63-20.95-21.89-27.88a45.11,45.11,0,0,0-12.5-7.78l-1.55-.62-1.63-.49a16,16,0,0,0-1.69-.46c-.59-.13-1.13-.32-1.76-.41a62,62,0,0,0-7.7-1A94.36,94.36,0,0,0,882.16,303a85,85,0,0,0-15.64,6.84,57.21,57.21,0,0,0-6.34,4.23,31.53,31.53,0,0,0-4.43,4.18,7.58,7.58,0,0,0-1.58,2.51c0,.05.06.05,0,.05s0,0,0,0a7.1,7.1,0,0,0,.07.84,11.73,11.73,0,0,0,.32,1.69,20.47,20.47,0,0,0,.74,2.21,25.39,25.39,0,0,0,2.63,4.88,26.11,26.11,0,0,0,3.67,4.28,17.36,17.36,0,0,0,3.66,2.64,4,4,0,0,0,1.88.58c.09,0,0,0,0-.08s.22-.11.47-.18a17.57,17.57,0,0,0,6.39-5.1,24.17,24.17,0,0,0,4.94-9.25c.11-.35.12-.65.21-1s.09-.57.08-.78a3.06,3.06,0,0,0,0-.94.24.24,0,0,1,0-.08s0,0,0,0,0,0,0,0,0,0,0,0h0l-.05,0a.75.75,0,0,1-.07-.12c0-.05-.16-.24-.23-.39a20.2,20.2,0,0,0-2.44-3.21,43.91,43.91,0,0,0-4.74-4.22,66.26,66.26,0,0,0-6.21-4.13c-2.29-1.27-4.63-2.55-7.13-3.63a84.42,84.42,0,0,0-15.57-5.18A71.61,71.61,0,0,0,827.27,298a40.7,40.7,0,0,0-12.87,1.93c-.92.25-1.65.65-2.46.94a24,24,0,0,0-2.26,1.21c-.73.37-1.32.88-2,1.29s-1.21,1-1.77,1.56l-.45.4c-.14.14-.28.32-.43.47-.28.33-.59.61-.88,1s-.57.73-.87,1.09-.58.82-.89,1.21c-.6.76-1.17,1.79-1.79,2.7-.29.49-.58,1.05-.88,1.56s-.61,1-.89,1.62a116.48,116.48,0,0,0-6.61,15.9c-2,5.92-3.86,12.27-5.63,18.78-3.55,13-6.6,26.78-9.74,40.58l-9.19,41.87c-6.13,28.08-12.55,56.26-19.34,84.35s-14,56.15-21.94,84.25c-4,14.05-8.22,28.1-12.9,42.28-2.38,7.1-4.89,14.23-7.74,21.56-1.47,3.69-3,7.38-4.8,11.34l-.68,1.48-.75,1.54-.75,1.53-.86,1.64c-.3.55-.56,1.07-.9,1.65l-1,1.79-.54.9-.64,1-.65,1c-.2.31-.45.67-.74,1.08l-.85,1.16c-.3.4-.52.72-1,1.23l-1.17,1.39c-.35.42-.82.94-1.44,1.56s-1.13,1.12-1.76,1.69c-.83.72-1.7,1.41-2.59,2.07a34.41,34.41,0,0,1-3.7,2.29,29.73,29.73,0,0,1-5.45,2.17,27.93,27.93,0,0,1-5.9,1,24.56,24.56,0,0,1-3.08,0,33.16,33.16,0,0,1-4.33-.38,36.19,36.19,0,0,1-4.24-.89,36.94,36.94,0,0,1-4-1.32A40.71,40.71,0,0,1,642,694a54.52,54.52,0,0,1-7-7.64,82.85,82.85,0,0,1-8-13.32c-2-4.13-3.6-8.06-5.07-11.9-2.88-7.67-5.16-15-7.29-22.26s-4-14.39-5.82-21.48c-3.64-14.18-7-28.17-10.36-42.1s-6.72-27.75-10.23-41.52-7.17-27.45-11-41.06-7.82-27.18-12.11-40.62l-6.6-20.34-6.67-20.37c-4.48-13.52-9.09-26.91-13.95-40.06a383.55,383.55,0,0,0-16.23-38.05,161.55,161.55,0,0,0-9.87-17.18,82.78,82.78,0,0,0-11.75-14.25,45.54,45.54,0,0,0-6.64-5.14,35.44,35.44,0,0,0-3.49-2c-.59-.32-1.2-.49-1.8-.76a12.17,12.17,0,0,0-1.83-.67l-1.85-.55c-.63-.16-1.27-.24-1.91-.38a24,24,0,0,0-4-.48,42.31,42.31,0,0,0-8.53.56,52,52,0,0,0-17,6.1,42.9,42.9,0,0,0-13.45,11.6A25.88,25.88,0,0,0,434.39,326c-.13,5.85,1.77,12,4.78,17.71a59.82,59.82,0,0,0,12.19,15.7,84.64,84.64,0,0,0,16.71,12.15h0a2.71,2.71,0,0,1-2.3,4.89Z" transform="translate(-55.15 -245.17)"/></svg>